<svg height="2030" width="720" xmlns="http://www.w3.org/2000/svg">
<rect height="2030" fill="#555" width="720"></rect>
<text fill="#7f7" font-family="Courier New" font-size="12" xml:space="preserve">
<tspan x="10" y="26"></tspan>
<tspan x="10" y="42">&gt; npmdoc-power-assert@0.0.1 test /home/travis/build/npmdoc/node-npmdoc-power-assert</tspan>
<tspan x="10" y="58">&gt; (set -e; export PORT=$(utility2 shServerPortRandom); utility2 test test.js)</tspan>
<tspan x="10" y="74"></tspan>
<tspan x="10" y="90"></tspan>
<tspan x="10" y="106">[MODE_BUILD=npmTest] - 2017-04-07T09:41:17Z - npm-testing /home/travis/build/npmdoc/node-npmdoc-\</tspan>
<tspan x="10" y="122">power-assert</tspan>
<tspan x="10" y="138"></tspan>
<tspan x="10" y="154"></tspan>
<tspan x="10" y="170">covering $ /home/travis/.nvm/versions/node/v6.10.2/bin/node /home/travis/build/npmdoc/node-npmdo\</tspan>
<tspan x="10" y="186">c-power-assert/test.js</tspan>
<tspan x="10" y="202">merging file:///home/travis/build/npmdoc/node-npmdoc-power-assert/tmp/build/test-report.json to \</tspan>
<tspan x="10" y="218">test-report</tspan>
<tspan x="10" y="234">&gt; server listening on http-port 54533</tspan>
<tspan x="10" y="250">created apidoc file:///home/travis/build/npmdoc/node-npmdoc-power-assert/tmp/build/apidoc.html</tspan>
<tspan x="10" y="266"></tspan>
<tspan x="10" y="282"></tspan>
<tspan x="10" y="298">browserTest - created electron entry-page /home/travis/build/npmdoc/node-npmdoc-power-assert/tmp\</tspan>
<tspan x="10" y="314">/electron.15b47ca188c0.2f5226984395e.html</tspan>
<tspan x="10" y="330"></tspan>
<tspan x="10" y="346">[node test-case 1 of 6 passed] - testCase_buildLib_default</tspan>
<tspan x="10" y="362">[node test-case 2 of 6 passed] - testCase_buildReadme_default</tspan>
<tspan x="10" y="378">[node test-case 3 of 6 passed] - testCase_buildTest_default</tspan>
<tspan x="10" y="394"></tspan>
<tspan x="10" y="410">browserTest - created electron entry-page /home/travis/build/npmdoc/node-npmdoc-power-assert/tmp\</tspan>
<tspan x="10" y="426">/electron.15b47ca18d20.bb5f8c1710a1d.html</tspan>
<tspan x="10" y="442"></tspan>
<tspan x="10" y="458">Xlib:  extension "RANDR" missing on display ":99.0".</tspan>
<tspan x="10" y="474">Xlib:  extension "RANDR" missing on display ":99.0".</tspan>
<tspan x="10" y="490">&gt; server listening on http-port 34673</tspan>
<tspan x="10" y="506">merging file:///home/travis/build/npmdoc/node-npmdoc-power-assert/tmp/build/test-report.json to \</tspan>
<tspan x="10" y="522">test-report</tspan>
<tspan x="10" y="538">Xlib:  extension "RANDR" missing on display ":99.0".</tspan>
<tspan x="10" y="554">merging file:///home/travis/build/npmdoc/node-npmdoc-power-assert/tmp/build/test-report.json to \</tspan>
<tspan x="10" y="570">test-report</tspan>
<tspan x="10" y="586">[4914:0407/094119:WARNING:audio_manager.cc(314)] Multiple instances of AudioManager detected</tspan>
<tspan x="10" y="602">[4914:0407/094119:WARNING:audio_manager.cc(275)] Multiple instances of AudioManager detected</tspan>
<tspan x="10" y="618">[4949:0407/094119:ERROR:sandbox_linux.cc(343)] InitializeSandbox() called with multiple threads \</tspan>
<tspan x="10" y="634">in process gpu-process. </tspan>
<tspan x="10" y="650">Xlib:  extension "RANDR" missing on display ":99.0".</tspan>
<tspan x="10" y="666">[4909:0407/094119:WARNING:audio_manager.cc(314)] Multiple instances of AudioManager detected</tspan>
<tspan x="10" y="682">[4909:0407/094119:WARNING:audio_manager.cc(275)] Multiple instances of AudioManager detected</tspan>
<tspan x="10" y="698">[4971:0407/094119:ERROR:sandbox_linux.cc(343)] InitializeSandbox() called with multiple threads \</tspan>
<tspan x="10" y="714">in process gpu-process. </tspan>
<tspan x="10" y="730">[4909:0407/094119:ERROR:browser_gpu_channel_host_factory.cc(131)] Failed to create channel.</tspan>
<tspan x="10" y="746"></tspan>
<tspan x="10" y="762">browserTest - opened url http://127.0.0.1:54533?modeTest=1</tspan>
<tspan x="10" y="778"></tspan>
<tspan x="10" y="794"></tspan>
<tspan x="10" y="810">browserTest - opened url /home/travis/build/npmdoc/node-npmdoc-power-assert/tmp/build/apidoc.htm\</tspan>
<tspan x="10" y="826">l</tspan>
<tspan x="10" y="842"></tspan>
<tspan x="10" y="858">[4914:0407/094121:INFO:CONSOLE(250)] "----------|-----------|-----------|-----------|-----------\</tspan>
<tspan x="10" y="874">|</tspan>
<tspan x="10" y="890">File      |   % Stmts |% Branches |   % Funcs |   % Lines |</tspan>
<tspan x="10" y="906">----------|-----------|-----------|-----------|-----------|</tspan>
<tspan x="10" y="922">----------|-----------|-----------|-----------|-----------|</tspan>
<tspan x="10" y="938">All files |       100 |       100 |       100 |       100 |</tspan>
<tspan x="10" y="954">----------|-----------|-----------|-----------|-----------|</tspan>
<tspan x="10" y="970">", source: file:///home/travis/build/npmdoc/node-npmdoc-power-assert/tmp/electron.15b47ca18d20.b\</tspan>
<tspan x="10" y="986">b5f8c1710a1d.html (250)</tspan>
<tspan x="10" y="1002">[4914:0407/094121:INFO:CONSOLE(250)] "created coverage file:///tmp/build/coverage.html/index.htm\</tspan>
<tspan x="10" y="1018">l", source: file:///home/travis/build/npmdoc/node-npmdoc-power-assert/tmp/electron.15b47ca18d20.\</tspan>
<tspan x="10" y="1034">bb5f8c1710a1d.html (250)</tspan>
<tspan x="10" y="1050">[node test-case 4 of 6 passed] - testCase_buildApp_default</tspan>
<tspan x="10" y="1066"></tspan>
<tspan x="10" y="1082">browserTest - created screenCapture file:///home/travis/build/npmdoc/node-npmdoc-power-assert/tm\</tspan>
<tspan x="10" y="1098">p/build/screenCapture.npmTest.browser._2Fhome_2Ftravis_2Fbuild_2Fnpmdoc_2Fnode-npmdoc-power-asse\</tspan>
<tspan x="10" y="1114">rt_2Ftmp_2Fbuild_2Fapidoc.html.png</tspan>
<tspan x="10" y="1130"></tspan>
<tspan x="10" y="1146"></tspan>
<tspan x="10" y="1162">browserTest - created screenCapture file:///home/travis/build/npmdoc/node-npmdoc-power-assert/tm\</tspan>
<tspan x="10" y="1178">p/build/screenCapture.npmTest.browser..png</tspan>
<tspan x="10" y="1194"></tspan>
<tspan x="10" y="1210">browserTest - created screenCapture file:///home/travis/build/npmdoc/node-npmdoc-power-assert/tm\</tspan>
<tspan x="10" y="1226">p/build/screenCapture.npmTest.browser..html</tspan>
<tspan x="10" y="1242"></tspan>
<tspan x="10" y="1258">browserTest - exit-code 0 - http://127.0.0.1:54533?modeTest=1</tspan>
<tspan x="10" y="1274"></tspan>
<tspan x="10" y="1290"></tspan>
<tspan x="10" y="1306">browserTest - merged coverage from /home/travis/build/npmdoc/node-npmdoc-power-assert/tmp/covera\</tspan>
<tspan x="10" y="1322">ge.npmTest.browser.%2F.json</tspan>
<tspan x="10" y="1338"></tspan>
<tspan x="10" y="1354"></tspan>
<tspan x="10" y="1370">browserTest - merging test-report from /home/travis/build/npmdoc/node-npmdoc-power-assert/tmp/te\</tspan>
<tspan x="10" y="1386">st-report.npmTest.browser.%2F.json</tspan>
<tspan x="10" y="1402"></tspan>
<tspan x="10" y="1418">[node test-case 5 of 6 passed] - testCase_webpage_default</tspan>
<tspan x="10" y="1434">browserTest - created screenCapture file:///home/travis/build/npmdoc/node-npmdoc-power-assert/tm\</tspan>
<tspan x="10" y="1450">p/build/screenCapture.npmTest.browser._2Fhome_2Ftravis_2Fbuild_2Fnpmdoc_2Fnode-npmdoc-power-asse\</tspan>
<tspan x="10" y="1466">rt_2Ftmp_2Fbuild_2Fapidoc.html.html</tspan>
<tspan x="10" y="1482"></tspan>
<tspan x="10" y="1498">browserTest - exit-code 0 - /home/travis/build/npmdoc/node-npmdoc-power-assert/tmp/build/apidoc.\</tspan>
<tspan x="10" y="1514">html</tspan>
<tspan x="10" y="1530"></tspan>
<tspan x="10" y="1546">[node test-case 6 of 6 passed] - testCase_buildApidoc_default</tspan>
<tspan x="10" y="1562">---------------------------------|-----------|-----------|-----------|-----------|</tspan>
<tspan x="10" y="1578">File                             |   % Stmts |% Branches |   % Funcs |   % Lines |</tspan>
<tspan x="10" y="1594">---------------------------------|-----------|-----------|-----------|-----------|</tspan>
<tspan x="10" y="1610">   node-npmdoc-power-assert/     |       100 |       100 |       100 |       100 |</tspan>
<tspan x="10" y="1626">      example.js                 |       100 |       100 |       100 |       100 |</tspan>
<tspan x="10" y="1642">      lib.npmdoc_power_assert.js |       100 |       100 |       100 |       100 |</tspan>
<tspan x="10" y="1658">      test.js                    |       100 |       100 |       100 |       100 |</tspan>
<tspan x="10" y="1674">---------------------------------|-----------|-----------|-----------|-----------|</tspan>
<tspan x="10" y="1690">All files                        |       100 |       100 |       100 |       100 |</tspan>
<tspan x="10" y="1706">---------------------------------|-----------|-----------|-----------|-----------|</tspan>
<tspan x="10" y="1722"></tspan>
<tspan x="10" y="1738">created coverage file:///home/travis/build/npmdoc/node-npmdoc-power-assert/tmp/build/coverage.ht\</tspan>
<tspan x="10" y="1754">ml/index.html</tspan>
<tspan x="10" y="1770">merging file:///home/travis/build/npmdoc/node-npmdoc-power-assert/tmp/build/test-report.json to \</tspan>
<tspan x="10" y="1786">test-report</tspan>
<tspan x="10" y="1802"></tspan>
<tspan x="10" y="1818">-------------------------------------------------------</tspan>
<tspan x="10" y="1834">| test-report - buildNpmdoc - node - linux v6.10.2 - 2017-04-07T09:40:56.525Z</tspan>
<tspan x="10" y="1850">|   36452 ms            0 failed        6 passed      |</tspan>
<tspan x="10" y="1866">-------------------------------------------------------</tspan>
<tspan x="10" y="1882"></tspan>
<tspan x="10" y="1898">created test-report file:///home/travis/build/npmdoc/node-npmdoc-power-assert/tmp/build/test-rep\</tspan>
<tspan x="10" y="1914">ort.html</tspan>
<tspan x="10" y="1930"></tspan>
<tspan x="10" y="1946"></tspan>
<tspan x="10" y="1962">npmTest - 0 failed tests</tspan>
<tspan x="10" y="1978"></tspan>
<tspan x="10" y="1994"></tspan>
<tspan x="10" y="2010">[MODE_BUILD=npmTest] - 2017-04-07T09:41:36Z - EXIT_CODE - 0</tspan>
</text>
</svg>
